Coordinates
version=1
nRows=19
nColumns=24
inDegrees=yes

Units are S.I. units (second, meters, Newtons, ...)
Angles are in degrees.

endheader
time	pelvis_tilt	pelvis_list	pelvis_rotation	pelvis_tx	pelvis_ty	pelvis_tz	hip_flexion_r	hip_adduction_r	hip_rotation_r	knee_angle_r	ankle_angle_r	subtalar_angle_r	mtp_angle_r	hip_flexion_l	hip_adduction_l	hip_rotation_l	knee_angle_l	ankle_angle_l	subtalar_angle_l	mtp_angle_l	lumbar_extension	lumbar_bending	lumbar_rotation
      4.23500000	     12.16525242	      0.65601414	     14.67314816	     -0.06443738	      0.75822287	     -0.26396538	     -5.17556832	      4.51183949	     -7.23897865	    -15.61168431	     25.39564649	      3.98792365	      0.00000000	     15.95796048	      3.53529929	      8.65526432	    -65.76319817	     16.48739115	     -0.77580398	      0.00000000	    -35.91501346	      6.18976449	     -1.16011376
      4.24000000	     12.20588990	      0.67980832	     14.11521896	     -0.05754653	      0.75850074	     -0.26384070	     -5.96799810	      4.50411514	     -7.21613167	    -15.22553401	     25.82045070	      4.85019498	      0.00000000	     16.33418054	      3.51629967	      7.96650240	    -64.33215750	     16.78427338	     -1.29834374	      0.00000000	    -35.98812314	      5.92442645	     -0.52153669
      4.24500000	     12.25095714	      0.68547576	     13.56072806	     -0.05065887	      0.75868114	     -0.26374100	     -6.75160019	      4.49669825	     -7.24837973	    -14.86013449	     26.25014646	      5.74526601	      0.00000000	     16.67523467	      3.46128456	      7.27689016	    -62.81967145	     17.04594205	     -1.83662197	      0.00000000	    -36.06404228	      5.68851296	      0.10230092
      4.25000000	     12.29156623	      0.64789433	     12.99753284	     -0.04378126	      0.75875844	     -0.26363169	     -7.51683563	      4.52359485	     -7.23824436	    -14.49965570	     26.66971649	      6.60883512	      0.00000000	     16.99817627	      3.35167248	      6.61275610	    -61.23388259	     17.23253876	     -2.34333388	      0.00000000	    -36.13397159	      5.48222699	      0.78511638
      4.25500000	     12.34631334	      0.61404071	     12.44204758	     -0.03690305	      0.75876445	     -0.26356101	     -8.28683616	      4.52979668	     -7.29172995	    -14.17166489	     27.09897211	      7.51224228	      0.00000000	     17.26075163	      3.23222512	      5.94537730	    -59.55454550	     17.40154581	     -2.86572835	      0.00000000	    -36.21958798	      5.29127499	      1.42458987
      4.26000000	     12.39930219	      0.55546845	     11.89817505	     -0.03003387	      0.75867845	     -0.26351735	     -9.04956386	      4.55227902	     -7.32979434	    -13.84615912	     27.52436594	      8.38378553	      0.00000000	     17.49275047	      3.08806147	      5.32126427	    -57.79816741	     17.51776189	     -3.33839467	      0.00000000	    -36.30371619	      5.12895689	      2.07342086
      4.26500000	     12.45275869	      0.47606413	     11.35148763	     -0.02318200	      0.75850641	     -0.26348852	     -9.79952597	      4.58673176	     -7.33872395	    -13.54004934	     27.94626846	      9.19957762	      0.00000000	     17.68943963	      2.91785725	      4.71559153	    -55.96392151	     17.59389750	     -3.75292723	      0.00000000	    -36.39276730	      4.98985409	      2.72007172
      4.27000000	     12.49596423	      0.36743659	     10.80850301	     -0.01634261	      0.75824139	     -0.26346741	    -10.52811403	      4.64715022	     -7.27698559	    -13.24804248	     28.36629510	      9.92073823	      0.00000000	     17.86648211	      2.71587166	      4.14032158	    -54.06046547	     17.62214604	     -4.07222891	      0.00000000	    -36.47225959	      4.88383700	      3.37074156
      4.27500000	     12.55179482	      0.25390939	     10.28608332	     -0.00951142	      0.75791157	     -0.26347799	    -11.26268563	      4.70640807	     -7.24916803	    -12.97651811	     28.77592746	     10.61839295	      0.00000000	     17.98479848	      2.51252234	      3.60740905	    -52.07367680	     17.65280252	     -4.33674915	      0.00000000	    -36.56912358	      4.79417091	      3.98487545
      4.28000000	     12.61298067	      0.13490507	      9.78917343	     -0.00268485	      0.75751670	     -0.26354254	    -11.99863299	      4.76668877	     -7.23435032	    -12.72113425	     29.17840214	     11.27179016	      0.00000000	     18.05238140	      2.31683768	      3.13302153	    -50.00821078	     17.67593136	     -4.50607235	      0.00000000	    -36.67498347	      4.73087537	      4.55916805
      4.28500000	     12.67428279	      0.00007546	      9.31526989	      0.00413314	      0.75705003	     -0.26363652	    -12.72746365	      4.84290689	     -7.21245865	    -12.48140832	     29.56743485	     11.85268742	      0.00000000	     18.08051702	      2.11726134	      2.72243946	    -47.87519108	     17.69038732	     -4.55947506	      0.00000000	    -36.78296800	      4.69460676	      5.10527403
      4.29000000	     12.71247601	     -0.19250688	      8.84909872	      0.01091214	      0.75647926	     -0.26375046	    -13.40446075	      4.97244642	     -7.14580994	    -12.27633520	     29.90906615	     12.31327062	      0.00000000	     18.11393627	      1.86890483	      2.36315201	    -45.70142253	     17.70438636	     -4.49594057	      0.00000000	    -36.87081957	      4.71587586	      5.68175363
      4.29500000	     12.77296171	     -0.33822880	      8.41127482	      0.01773029	      0.75589358	     -0.26388169	    -14.12264803	      5.06048078	     -7.07558938	    -12.07038881	     30.28304633	     12.74803762	      0.00000000	     18.05109766	      1.67923904	      2.06927517	    -43.43135399	     17.72388098	     -4.27408907	      0.00000000	    -36.98269845	      4.70373711	      6.15575434
      4.30000000	     12.85942608	     -0.47947364	      8.04636407	      0.02452870	      0.75526740	     -0.26411663	    -14.87440696	      5.15721132	     -7.06349960	    -11.86127156	     30.64966653	     13.14241517	      0.00000000	     17.92485818	      1.53050490	      1.91468988	    -41.11892525	     17.72793410	     -3.91937192	      0.00000000	    -37.12859997	      4.73825724	      6.53724812
      4.30500000	     12.88128867	     -0.67248190	      7.65133005	      0.03134235	      0.75451927	     -0.26432268	    -15.52822665	      5.28759840	     -6.98622346	    -11.70094191	     30.97647781	     13.42535081	      0.00000000	     17.83794950	      1.32921053	      1.76905230	    -38.77867340	     17.76532170	     -3.43948653	      0.00000000	    -37.20073503	      4.79181378	      6.98406499
      4.31000000	     12.90040592	     -0.85057522	      7.30553154	      0.03817091	      0.75372166	     -0.26458211	    -16.18599688	      5.41308115	     -6.89166372	    -11.54262585	     31.28521196	     13.65271914	      0.00000000	     17.70519145	      1.17559458	      1.76443698	    -36.39405931	     17.83143933	     -2.82629732	      0.00000000	    -37.26643109	      4.85714340	      7.30695586
      4.31500000	     12.96378931	     -1.02434164	      6.99220523	      0.04499827	      0.75292021	     -0.26487806	    -16.88228669	      5.54199442	     -6.83796082	    -11.41457242	     31.60646552	     13.83808776	      0.00000000	     17.49188235	      1.02845137	      1.82069996	    -33.99754207	     17.87144137	     -2.05413432	      0.00000000	    -37.38473576	      4.93631744	      7.63399157
      4.32000000	     13.00797581	     -1.20333392	      6.71080557	      0.05185805	      0.75205372	     -0.26519621	    -17.55435694	      5.67929124	     -6.79548792	    -11.30434715	     31.90691137	     13.98057769	      0.00000000	     17.26618495	      0.89748267	      1.99555098	    -31.60150308	     17.91971342	     -1.20614591	      0.00000000	    -37.47308078	      5.02759350	      7.90226693
      4.32500000	     13.06139505	     -1.38540872	      6.45927052	      0.05873282	      0.75116039	     -0.26553927	    -18.23058550	      5.82336861	     -6.76937909	    -11.21270316	     32.19138912	     14.10195782	      0.00000000	     17.00798694	      0.77018699	      2.25158033	    -29.23209520	     17.94713222	     -0.27060274	      0.00000000	    -37.57017762	      5.13047127	      8.16302860
